<svg xmlns="http://www.w3.org/2000/svg" xmlns:xlink="http://www.w3.org/1999/xlink" width="628" zoomAndPan="magnify" viewBox="0 0 470.87997 190.499994" height="254" preserveAspectRatio="xMidYMid meet" version="1.0"><defs><g/><clipPath id="eb22fbd3bf"><path d="M 46 55 L 133.992188 55 L 133.992188 75 L 46 75 Z M 46 55 " clip-rule="nonzero"/></clipPath><clipPath id="f33c92ccc0"><path d="M 27 0.367188 L 54 0.367188 L 54 65 L 27 65 Z M 27 0.367188 " clip-rule="nonzero"/></clipPath></defs><g clip-path="url(#eb22fbd3bf)"><path fill="#099b54" d="M 134.097656 71.132812 C 90.140625 84.246094 91.523438 47.40625 46.183594 71.132812 C 89.050781 33.628906 97.113281 75.894531 134.097656 71.132812 " fill-opacity="1" fill-rule="nonzero"/></g><g clip-path="url(#f33c92ccc0)"><path fill="#099b54" d="M 45.136719 52.992188 C 47.300781 47.183594 50.195312 41.921875 53.773438 37.292969 C 52.953125 31.929688 49.796875 27.214844 45.664062 22.210938 C 42.097656 17.894531 37.75 11.117188 41.652344 0.382812 C 41.652344 0.382812 9.820312 16.742188 40.25 64.171875 L 41.042969 34.28125 C 41.042969 34.28125 44.597656 41.730469 45.136719 52.992188 " fill-opacity="1" fill-rule="nonzero"/></g><path fill="#00bf63" d="M 42.167969 80.417969 C 47.804688 46.054688 75.628906 35.285156 75.628906 35.285156 L 55.703125 57.578125 C 113.378906 54.019531 100.175781 3.921875 100.175781 3.921875 C 96.292969 12.175781 89.1875 16.5625 79.730469 20.15625 C 38.710938 35.742188 42.167969 80.417969 42.167969 80.417969 " fill-opacity="1" fill-rule="nonzero"/><path fill="#00bf63" d="M 103.65625 59.976562 C 103.640625 59.910156 103.632812 59.875 103.632812 59.875 C 103.628906 59.886719 103.625 59.894531 103.617188 59.902344 C 103.628906 59.917969 103.640625 59.945312 103.65625 59.976562 " fill-opacity="1" fill-rule="nonzero"/><g fill="#252525" fill-opacity="1"><g transform="translate(26.508239, 132.617634)"><g><path d="M 16.234375 -43.984375 C 16.429688 -42.296875 16.53125 -38.007812 16.53125 -31.125 L 22.734375 -31.125 C 26.078125 -31.125 29.164062 -31.273438 32 -31.578125 C 32.300781 -30.910156 32.453125 -29.8125 32.453125 -28.28125 C 32.453125 -26.375 32.003906 -25.035156 31.109375 -24.265625 C 30.222656 -23.503906 28.628906 -23.125 26.328125 -23.125 L 16.53125 -23.125 L 16.53125 -15.921875 C 16.53125 -9.847656 17.15625 -4.832031 18.40625 -0.875 C 17.945312 -0.644531 16.957031 -0.398438 15.4375 -0.140625 C 13.925781 0.109375 12.75 0.234375 11.90625 0.234375 C 8.894531 0.234375 6.878906 -0.300781 5.859375 -1.375 C 4.835938 -2.445312 4.328125 -4.410156 4.328125 -7.265625 C 4.328125 -8.109375 4.351562 -9.578125 4.40625 -11.671875 C 4.457031 -13.765625 4.484375 -15.726562 4.484375 -17.5625 L 4.484375 -33.21875 C 4.484375 -40.1875 4.113281 -46.285156 3.375 -51.515625 C 10.101562 -51.972656 16.976562 -52.203125 24 -52.203125 C 31.53125 -52.203125 36.414062 -51.785156 38.65625 -50.953125 C 39.65625 -50.585938 40.15625 -49.539062 40.15625 -47.8125 C 40.15625 -45.769531 39.835938 -43.992188 39.203125 -42.484375 C 35.753906 -43.585938 29.921875 -44.140625 21.703125 -44.140625 C 20.660156 -44.140625 18.835938 -44.085938 16.234375 -43.984375 Z M 16.234375 -43.984375 "/></g></g><g transform="translate(66.662553, 132.617634)"><g><path d="M 29.09375 -22.578125 C 28.25 -25.441406 27.25 -29.132812 26.09375 -33.65625 C 24.945312 -38.1875 24.273438 -40.8125 24.078125 -41.53125 C 20.835938 -30.25 19 -23.929688 18.5625 -22.578125 C 21.09375 -22.484375 23.082031 -22.4375 24.53125 -22.4375 C 26.570312 -22.4375 28.09375 -22.484375 29.09375 -22.578125 Z M 23.5 -14.65625 C 21.351562 -14.65625 19.03125 -14.757812 16.53125 -14.96875 C 12.988281 -6.394531 10.847656 -0.929688 10.109375 1.421875 C 8.296875 1.160156 6.96875 0.945312 6.125 0.78125 C 5.28125 0.613281 4.304688 0.34375 3.203125 -0.03125 C 2.109375 -0.414062 1.351562 -0.925781 0.9375 -1.5625 C 0.519531 -2.207031 0.3125 -2.988281 0.3125 -3.90625 C 0.3125 -5 1.210938 -7.664062 3.015625 -11.90625 C 4.828125 -16.144531 7.242188 -22 10.265625 -29.46875 C 13.296875 -36.945312 15.859375 -44.257812 17.953125 -51.40625 C 20.398438 -51.789062 22.414062 -51.984375 24 -51.984375 C 28.382812 -51.984375 31.203125 -50.066406 32.453125 -46.234375 C 36.304688 -34.316406 39.078125 -26.21875 40.765625 -21.9375 C 44.847656 -11.34375 47.617188 -4.601562 49.078125 -1.71875 C 46.617188 -0.0625 44.191406 0.765625 41.796875 0.765625 C 38.710938 0.765625 36.722656 -0.21875 35.828125 -2.1875 C 35.242188 -3.5625 34.472656 -5.5 33.515625 -8 C 32.554688 -10.5 31.65625 -12.769531 30.8125 -14.8125 C 26.726562 -14.707031 24.289062 -14.65625 23.5 -14.65625 Z M 23.5 -14.65625 "/></g></g><g transform="translate(114.778828, 132.617634)"><g><path d="M 38.3125 -9.34375 C 39.40625 -8.09375 40.769531 -7.46875 42.40625 -7.46875 C 43.09375 -7.46875 43.820312 -7.539062 44.59375 -7.6875 C 45.070312 -6.382812 45.3125 -5.210938 45.3125 -4.171875 C 45.3125 -2.390625 44.460938 -1.117188 42.765625 -0.359375 C 41.078125 0.390625 39.132812 0.765625 36.9375 0.765625 C 34.101562 0.765625 31.816406 -0.113281 30.078125 -1.875 C 26.785156 -5.21875 23.394531 -11.695312 19.90625 -21.3125 C 18.90625 -21.675781 18.40625 -22.429688 18.40625 -23.578125 C 18.40625 -24.617188 18.703125 -25.832031 19.296875 -27.21875 C 19.859375 -27.0625 20.53125 -26.984375 21.3125 -26.984375 C 23.613281 -26.984375 25.363281 -27.878906 26.5625 -29.671875 C 27.757812 -31.472656 28.359375 -33.84375 28.359375 -36.78125 C 28.359375 -39.738281 27.601562 -41.804688 26.09375 -42.984375 C 24.59375 -44.160156 22.273438 -44.75 19.140625 -44.75 C 18.296875 -44.75 17.300781 -44.695312 16.15625 -44.59375 C 16.300781 -42.5 16.375 -37.507812 16.375 -29.625 L 16.375 -15.609375 C 16.375 -9.691406 17.003906 -4.78125 18.265625 -0.875 C 16.316406 -0.132812 13.863281 0.234375 10.90625 0.234375 C 8.28125 0.234375 6.5 -0.328125 5.5625 -1.453125 C 4.632812 -2.578125 4.171875 -4.257812 4.171875 -6.5 C 4.171875 -7.34375 4.195312 -9.023438 4.25 -11.546875 C 4.300781 -14.078125 4.328125 -16.265625 4.328125 -18.109375 L 4.328125 -33.796875 C 4.328125 -40.785156 4.007812 -46.796875 3.375 -51.828125 C 7.863281 -52.441406 12.351562 -52.75 16.84375 -52.75 C 33 -52.75 41.078125 -47.285156 41.078125 -36.359375 C 41.078125 -29.265625 37.910156 -24.484375 31.578125 -22.015625 C 34.148438 -15.753906 36.394531 -11.53125 38.3125 -9.34375 Z M 38.3125 -9.34375 "/></g></g><g transform="translate(160.330434, 132.617634)"><g><path d="M 59.484375 -34.1875 L 59.484375 -15.921875 C 59.484375 -9.128906 59.976562 -4.078125 60.96875 -0.765625 C 58.269531 -0.0976562 56.023438 0.234375 54.234375 0.234375 C 49.535156 0.234375 47.1875 -1.71875 47.1875 -5.625 C 47.1875 -6.257812 47.195312 -7.695312 47.21875 -9.9375 C 47.25 -12.1875 47.273438 -15.492188 47.296875 -19.859375 C 47.328125 -24.222656 47.34375 -28.445312 47.34375 -32.53125 C 42.695312 -19.414062 39.585938 -8.773438 38.015625 -0.609375 C 36.554688 -0.0976562 34.78125 0.15625 32.6875 0.15625 C 28.394531 0.15625 25.859375 -0.8125 25.078125 -2.75 C 24.078125 -5.15625 22.535156 -9.945312 20.453125 -17.125 C 18.378906 -24.3125 16.675781 -29.578125 15.34375 -32.921875 L 15.34375 -15.921875 C 15.34375 -8.859375 15.84375 -3.675781 16.84375 -0.375 C 14.976562 0.03125 13.15625 0.234375 11.375 0.234375 C 6.925781 0.234375 4.703125 -1.257812 4.703125 -4.25 C 4.703125 -5.0625 4.726562 -7.113281 4.78125 -10.40625 C 4.832031 -13.695312 4.859375 -16.265625 4.859375 -18.109375 L 4.859375 -37.859375 C 4.859375 -43.722656 4.363281 -48.328125 3.375 -51.671875 C 6.664062 -52.128906 9.28125 -52.359375 11.21875 -52.359375 C 15.957031 -52.359375 19.046875 -50.789062 20.484375 -47.65625 C 22.035156 -44.15625 23.554688 -40.117188 25.046875 -35.546875 C 26.546875 -30.984375 27.695312 -27.25 28.5 -24.34375 C 29.300781 -21.4375 30.570312 -16.789062 32.3125 -10.40625 C 35.21875 -24.3125 39.3125 -37.019531 44.59375 -48.53125 C 45.28125 -49.988281 46.382812 -50.976562 47.90625 -51.5 C 49.425781 -52.019531 51.410156 -52.28125 53.859375 -52.28125 C 56.640625 -52.28125 58.984375 -52.078125 60.890625 -51.671875 C 59.953125 -48.535156 59.484375 -42.707031 59.484375 -34.1875 Z M 59.484375 -34.1875 "/></g></g></g><g fill="#00bf63" fill-opacity="1"><g transform="translate(227.120303, 132.617634)"><g><path d="M 16.234375 -43.984375 C 16.429688 -42.296875 16.53125 -38.273438 16.53125 -31.921875 L 22.734375 -31.921875 C 26.078125 -31.921875 29.164062 -32.070312 32 -32.375 C 32.300781 -31.6875 32.453125 -30.59375 32.453125 -29.09375 C 32.453125 -27.15625 32.003906 -25.804688 31.109375 -25.046875 C 30.222656 -24.296875 28.628906 -23.921875 26.328125 -23.921875 L 16.53125 -23.921875 C 16.53125 -15.085938 16.75 -9.78125 17.1875 -8 C 19.476562 -7.894531 21.328125 -7.84375 22.734375 -7.84375 C 31.253906 -7.84375 36.742188 -8.441406 39.203125 -9.640625 C 39.835938 -8.054688 40.15625 -6.257812 40.15625 -4.25 C 40.15625 -2.457031 39.457031 -1.273438 38.0625 -0.703125 C 36.675781 -0.128906 33.914062 0.15625 29.78125 0.15625 C 17.300781 0.15625 10.066406 0.101562 8.078125 0 C 6.566406 -0.0507812 5.550781 -0.414062 5.03125 -1.09375 C 4.507812 -1.769531 4.25 -2.898438 4.25 -4.484375 C 4.25 -5.316406 4.273438 -7.242188 4.328125 -10.265625 C 4.378906 -13.296875 4.40625 -15.726562 4.40625 -17.5625 L 4.40625 -33.21875 C 4.40625 -40.59375 4.0625 -46.691406 3.375 -51.515625 C 10.101562 -51.972656 16.976562 -52.203125 24 -52.203125 C 31.53125 -52.203125 36.414062 -51.785156 38.65625 -50.953125 C 39.65625 -50.585938 40.15625 -49.539062 40.15625 -47.8125 C 40.15625 -45.769531 39.835938 -43.992188 39.203125 -42.484375 C 35.753906 -43.585938 29.921875 -44.140625 21.703125 -44.140625 C 20.660156 -44.140625 18.835938 -44.085938 16.234375 -43.984375 Z M 16.234375 -43.984375 "/></g></g><g transform="translate(268.844042, 132.617634)"><g><path d="M 29.09375 -22.578125 C 28.25 -25.441406 27.25 -29.132812 26.09375 -33.65625 C 24.945312 -38.1875 24.273438 -40.8125 24.078125 -41.53125 C 20.835938 -30.25 19 -23.929688 18.5625 -22.578125 C 21.09375 -22.484375 23.082031 -22.4375 24.53125 -22.4375 C 26.570312 -22.4375 28.09375 -22.484375 29.09375 -22.578125 Z M 23.5 -14.65625 C 21.351562 -14.65625 19.03125 -14.757812 16.53125 -14.96875 C 12.988281 -6.394531 10.847656 -0.929688 10.109375 1.421875 C 8.296875 1.160156 6.96875 0.945312 6.125 0.78125 C 5.28125 0.613281 4.304688 0.34375 3.203125 -0.03125 C 2.109375 -0.414062 1.351562 -0.925781 0.9375 -1.5625 C 0.519531 -2.207031 0.3125 -2.988281 0.3125 -3.90625 C 0.3125 -5 1.210938 -7.664062 3.015625 -11.90625 C 4.828125 -16.144531 7.242188 -22 10.265625 -29.46875 C 13.296875 -36.945312 15.859375 -44.257812 17.953125 -51.40625 C 20.398438 -51.789062 22.414062 -51.984375 24 -51.984375 C 28.382812 -51.984375 31.203125 -50.066406 32.453125 -46.234375 C 36.304688 -34.316406 39.078125 -26.21875 40.765625 -21.9375 C 44.847656 -11.34375 47.617188 -4.601562 49.078125 -1.71875 C 46.617188 -0.0625 44.191406 0.765625 41.796875 0.765625 C 38.710938 0.765625 36.722656 -0.21875 35.828125 -2.1875 C 35.242188 -3.5625 34.472656 -5.5 33.515625 -8 C 32.554688 -10.5 31.65625 -12.769531 30.8125 -14.8125 C 26.726562 -14.707031 24.289062 -14.65625 23.5 -14.65625 Z M 23.5 -14.65625 "/></g></g><g transform="translate(316.960317, 132.617634)"><g><path d="M 32.84375 -39.046875 C 32 -40.546875 30.453125 -41.859375 28.203125 -42.984375 C 25.960938 -44.109375 23.796875 -44.671875 21.703125 -44.671875 C 19.992188 -44.671875 18.601562 -44.21875 17.53125 -43.3125 C 16.457031 -42.40625 15.921875 -41.007812 15.921875 -39.125 C 15.921875 -37.4375 16.53125 -36.015625 17.75 -34.859375 C 18.976562 -33.710938 20.492188 -32.863281 22.296875 -32.3125 C 24.097656 -31.769531 26.066406 -31.082031 28.203125 -30.25 C 30.347656 -29.425781 32.328125 -28.539062 34.140625 -27.59375 C 35.953125 -26.65625 37.46875 -25.1875 38.6875 -23.1875 C 39.914062 -21.195312 40.53125 -18.800781 40.53125 -16 C 40.53125 -12.914062 39.941406 -10.25 38.765625 -8 C 37.597656 -5.75 35.992188 -4.007812 33.953125 -2.78125 C 31.910156 -1.5625 29.726562 -0.664062 27.40625 -0.09375 C 25.082031 0.476562 22.582031 0.765625 19.90625 0.765625 C 15.101562 0.765625 10.960938 0.0859375 7.484375 -1.265625 C 4.003906 -2.617188 2.265625 -4.390625 2.265625 -6.578125 C 2.265625 -8.210938 2.707031 -9.519531 3.59375 -10.5 C 4.488281 -11.488281 6.007812 -12.554688 8.15625 -13.703125 C 9.457031 -11.890625 11.414062 -10.363281 14.03125 -9.125 C 16.644531 -7.882812 19.175781 -7.265625 21.625 -7.265625 C 23.71875 -7.265625 25.421875 -7.765625 26.734375 -8.765625 C 28.046875 -9.765625 28.703125 -11.304688 28.703125 -13.390625 C 28.703125 -15.378906 27.847656 -16.972656 26.140625 -18.171875 C 24.429688 -19.378906 22.375 -20.351562 19.96875 -21.09375 C 17.570312 -21.832031 15.175781 -22.703125 12.78125 -23.703125 C 10.382812 -24.710938 8.332031 -26.398438 6.625 -28.765625 C 4.914062 -31.128906 4.0625 -34.160156 4.0625 -37.859375 C 4.0625 -40.535156 4.640625 -42.863281 5.796875 -44.84375 C 6.960938 -46.820312 8.519531 -48.367188 10.46875 -49.484375 C 12.414062 -50.609375 14.550781 -51.429688 16.875 -51.953125 C 19.195312 -52.484375 21.722656 -52.75 24.453125 -52.75 C 28.742188 -52.75 32.429688 -52.125 35.515625 -50.875 C 38.609375 -49.625 40.15625 -47.875 40.15625 -45.625 C 40.15625 -44.269531 39.507812 -42.984375 38.21875 -41.765625 C 36.925781 -40.554688 35.132812 -39.648438 32.84375 -39.046875 Z M 32.84375 -39.046875 "/></g></g><g transform="translate(359.832416, 132.617634)"><g><path d="M 23.34375 -30.65625 C 25.1875 -33.46875 27.191406 -37.425781 29.359375 -42.53125 C 31.523438 -47.632812 32.632812 -51.039062 32.6875 -52.75 C 40.21875 -51.976562 43.984375 -50.023438 43.984375 -46.890625 C 43.984375 -46.398438 43.8125 -45.753906 43.46875 -44.953125 C 43.125 -44.148438 42.570312 -43.148438 41.8125 -41.953125 C 41.0625 -40.753906 40.347656 -39.644531 39.671875 -38.625 C 38.992188 -37.601562 38.035156 -36.253906 36.796875 -34.578125 C 35.566406 -32.910156 34.640625 -31.65625 34.015625 -30.8125 C 33.390625 -29.96875 32.398438 -28.660156 31.046875 -26.890625 C 29.691406 -25.117188 28.847656 -24.015625 28.515625 -23.578125 L 28.515625 -15.921875 C 28.515625 -10.054688 29.15625 -5.039062 30.4375 -0.875 C 28.488281 -0.132812 26.097656 0.234375 23.265625 0.234375 C 22.222656 0.234375 21.363281 0.164062 20.6875 0.03125 C 20.007812 -0.09375 19.296875 -0.351562 18.546875 -0.75 C 17.796875 -1.144531 17.234375 -1.828125 16.859375 -2.796875 C 16.492188 -3.765625 16.3125 -5 16.3125 -6.5 C 16.3125 -7.5 16.332031 -9.367188 16.375 -12.109375 C 16.425781 -14.859375 16.453125 -16.859375 16.453125 -18.109375 L 16.453125 -23.046875 C 8.828125 -37.410156 3.164062 -45.410156 -0.53125 -47.046875 C 2.113281 -50.640625 4.90625 -52.4375 7.84375 -52.4375 C 10.75 -52.4375 13.148438 -50.789062 15.046875 -47.5 C 16.679688 -44.5625 19.445312 -38.945312 23.34375 -30.65625 Z M 23.34375 -30.65625 "/></g></g></g></svg>