<svg width="143" height="22" viewBox="0 0 143 22" fill="none" xmlns="http://www.w3.org/2000/svg">
<path d="M5.07812 4.16895C5.15625 4.81348 5.19531 6.4541 5.19531 9.09082H7.56836C8.84766 9.09082 10.0293 9.03223 11.1133 8.91504C11.2305 9.16895 11.2891 9.58887 11.2891 10.1748C11.2891 10.9072 11.1182 11.4199 10.7764 11.7129C10.4346 12.0059 9.82422 12.1523 8.94531 12.1523H5.19531V14.9062C5.19531 17.2305 5.43457 19.1494 5.91309 20.6631C5.7373 20.751 5.35645 20.8438 4.77051 20.9414C4.19434 21.0391 3.74512 21.0879 3.42285 21.0879C2.27051 21.0879 1.49902 20.8828 1.1084 20.4727C0.717773 20.0625 0.522461 19.3105 0.522461 18.2168C0.522461 17.8945 0.532227 17.333 0.551758 16.5322C0.571289 15.7314 0.581055 14.9795 0.581055 14.2764V8.28516C0.581055 5.61914 0.439453 3.28516 0.15625 1.2832C2.73438 1.10742 5.36621 1.01953 8.05176 1.01953C10.9326 1.01953 12.8027 1.18066 13.6621 1.50293C14.043 1.63965 14.2334 2.04004 14.2334 2.7041C14.2334 3.48535 14.1113 4.16406 13.8672 4.74023C12.5488 4.32031 10.3174 4.11035 7.17285 4.11035C6.77246 4.11035 6.07422 4.12988 5.07812 4.16895ZM25.3809 12.3574C25.0586 11.2637 24.6777 9.85254 24.2383 8.12402C23.7988 6.38574 23.54 5.37988 23.4619 5.10645C22.2217 9.42285 21.5186 11.8398 21.3525 12.3574C22.3193 12.3965 23.0811 12.416 23.6377 12.416C24.4189 12.416 25 12.3965 25.3809 12.3574ZM23.2422 15.3896C22.4219 15.3896 21.5332 15.3506 20.5762 15.2725C19.2188 18.5537 18.3984 20.6436 18.1152 21.542C17.4219 21.4443 16.9141 21.3613 16.5918 21.293C16.2695 21.2344 15.8984 21.1318 15.4785 20.9854C15.0586 20.8389 14.7656 20.6436 14.5996 20.3994C14.4434 20.1553 14.3652 19.8574 14.3652 19.5059C14.3652 19.0859 14.7119 18.0654 15.4053 16.4443C16.0986 14.8232 17.0215 12.582 18.1738 9.7207C19.3359 6.85938 20.3174 4.06152 21.1182 1.32715C22.0557 1.18066 22.8271 1.10742 23.4326 1.10742C25.1123 1.10742 26.1914 1.83984 26.6699 3.30469C28.1445 7.86523 29.2041 10.9658 29.8486 12.6064C31.4111 16.6592 32.4707 19.2373 33.0273 20.3408C32.0898 20.9756 31.1621 21.293 30.2441 21.293C29.0625 21.293 28.3008 20.917 27.959 20.165C27.7344 19.6377 27.4365 18.8955 27.0654 17.9385C26.7041 16.9814 26.3623 16.1123 26.04 15.3311C24.4775 15.3701 23.5449 15.3896 23.2422 15.3896ZM47.3389 17.4258C47.7588 17.9043 48.2812 18.1436 48.9062 18.1436C49.1699 18.1436 49.4482 18.1143 49.7412 18.0557C49.9268 18.5537 50.0195 19.0029 50.0195 19.4033C50.0195 20.0869 49.6924 20.5752 49.0381 20.8682C48.3936 21.1514 47.6514 21.293 46.8115 21.293C45.7275 21.293 44.8535 20.9561 44.1895 20.2822C42.9297 19.0029 41.6309 16.5225 40.293 12.8408C39.9121 12.7041 39.7217 12.416 39.7217 11.9766C39.7217 11.5762 39.834 11.1123 40.0586 10.585C40.2734 10.6436 40.5322 10.6729 40.835 10.6729C41.7139 10.6729 42.3828 10.3311 42.8418 9.64746C43.3008 8.9541 43.5303 8.0459 43.5303 6.92285C43.5303 5.79004 43.2422 4.99902 42.666 4.5498C42.0898 4.10059 41.2012 3.87598 40 3.87598C39.6777 3.87598 39.2969 3.89551 38.8574 3.93457C38.916 4.73535 38.9453 6.64453 38.9453 9.66211V15.0234C38.9453 17.2891 39.1846 19.1689 39.6631 20.6631C38.9209 20.9463 37.9834 21.0879 36.8506 21.0879C35.8447 21.0879 35.1611 20.873 34.7998 20.4434C34.4482 20.0137 34.2725 19.3691 34.2725 18.5098C34.2725 18.1875 34.2822 17.543 34.3018 16.5762C34.3213 15.6094 34.3311 14.7744 34.3311 14.0713V8.06543C34.3311 5.38965 34.209 3.08984 33.9648 1.16602C35.6836 0.931641 37.4023 0.814453 39.1211 0.814453C45.3027 0.814453 48.3936 2.9043 48.3936 7.08398C48.3936 9.79883 47.1826 11.6299 44.7607 12.5771C45.7471 14.9697 46.6064 16.5859 47.3389 17.4258ZM72.8711 7.91895V14.9062C72.8711 17.5039 73.0615 19.4375 73.4424 20.707C72.4072 20.9609 71.5479 21.0879 70.8643 21.0879C69.0674 21.0879 68.1689 20.3408 68.1689 18.8467C68.1689 18.6025 68.1738 18.0508 68.1836 17.1914C68.1934 16.332 68.2031 15.0674 68.2129 13.3975C68.2227 11.7275 68.2275 10.1113 68.2275 8.54883C66.4502 13.5684 65.2588 17.6406 64.6533 20.7656C64.0967 20.9609 63.418 21.0586 62.6172 21.0586C60.9766 21.0586 60.0049 20.6875 59.7021 19.9453C59.3213 19.0273 58.7305 17.1963 57.9297 14.4521C57.1387 11.6982 56.4893 9.68164 55.9814 8.40234V14.9062C55.9814 17.6113 56.1719 19.5938 56.5527 20.8535C55.8398 21.0098 55.1416 21.0879 54.458 21.0879C52.7588 21.0879 51.9092 20.5166 51.9092 19.374C51.9092 19.0615 51.9189 18.2754 51.9385 17.0156C51.958 15.7559 51.9678 14.7744 51.9678 14.0713V6.5127C51.9678 4.2666 51.7773 2.50391 51.3965 1.22461C52.6562 1.04883 53.6572 0.960938 54.3994 0.960938C56.2158 0.960938 57.3975 1.56152 57.9443 2.7627C58.54 4.10059 59.1211 5.64355 59.6875 7.3916C60.2637 9.13965 60.7031 10.5703 61.0059 11.6836C61.3184 12.7969 61.8066 14.5742 62.4707 17.0156C63.584 11.6934 65.1514 6.83008 67.1729 2.42578C67.4365 1.86914 67.8564 1.49316 68.4326 1.29785C69.0186 1.09277 69.7803 0.990234 70.7178 0.990234C71.7822 0.990234 72.6807 1.06836 73.4131 1.22461C73.0518 2.42578 72.8711 4.65723 72.8711 7.91895Z" fill="#333333"/>
<path d="M80.957 4.16895C81.0352 4.81348 81.0742 6.35156 81.0742 8.7832H83.4473C84.7266 8.7832 85.9082 8.72461 86.9922 8.60742C87.1094 8.87109 87.168 9.29102 87.168 9.86719C87.168 10.6094 86.9971 11.127 86.6553 11.4199C86.3135 11.7031 85.7031 11.8447 84.8242 11.8447H81.0742C81.0742 15.2236 81.1572 17.2549 81.3232 17.9385C82.2021 17.9775 82.9102 17.9971 83.4473 17.9971C86.709 17.9971 88.8086 17.7676 89.7461 17.3086C89.9902 17.9141 90.1123 18.6025 90.1123 19.374C90.1123 20.0576 89.8438 20.5117 89.3066 20.7363C88.7793 20.9512 87.7246 21.0586 86.1426 21.0586C81.3672 21.0586 78.5986 21.0391 77.8369 21C77.2607 20.9805 76.8701 20.8438 76.665 20.5898C76.4697 20.3262 76.3721 19.8916 76.3721 19.2861C76.3721 18.9639 76.3818 18.2266 76.4014 17.0742C76.4209 15.9121 76.4307 14.9795 76.4307 14.2764V8.28516C76.4307 5.46289 76.2988 3.12891 76.0352 1.2832C78.6133 1.10742 81.2451 1.01953 83.9307 1.01953C86.8115 1.01953 88.6816 1.18066 89.541 1.50293C89.9219 1.63965 90.1123 2.04004 90.1123 2.7041C90.1123 3.48535 89.9902 4.16406 89.7461 4.74023C88.4277 4.32031 86.1963 4.11035 83.0518 4.11035C82.6514 4.11035 81.9531 4.12988 80.957 4.16895ZM101.846 12.3574C101.523 11.2637 101.143 9.85254 100.703 8.12402C100.264 6.38574 100.005 5.37988 99.9268 5.10645C98.6865 9.42285 97.9834 11.8398 97.8174 12.3574C98.7842 12.3965 99.5459 12.416 100.103 12.416C100.884 12.416 101.465 12.3965 101.846 12.3574ZM99.707 15.3896C98.8867 15.3896 97.998 15.3506 97.041 15.2725C95.6836 18.5537 94.8633 20.6436 94.5801 21.542C93.8867 21.4443 93.3789 21.3613 93.0566 21.293C92.7344 21.2344 92.3633 21.1318 91.9434 20.9854C91.5234 20.8389 91.2305 20.6436 91.0645 20.3994C90.9082 20.1553 90.8301 19.8574 90.8301 19.5059C90.8301 19.0859 91.1768 18.0654 91.8701 16.4443C92.5635 14.8232 93.4863 12.582 94.6387 9.7207C95.8008 6.85938 96.7822 4.06152 97.583 1.32715C98.5205 1.18066 99.292 1.10742 99.8975 1.10742C101.577 1.10742 102.656 1.83984 103.135 3.30469C104.609 7.86523 105.669 10.9658 106.313 12.6064C107.876 16.6592 108.936 19.2373 109.492 20.3408C108.555 20.9756 107.627 21.293 106.709 21.293C105.527 21.293 104.766 20.917 104.424 20.165C104.199 19.6377 103.901 18.8955 103.53 17.9385C103.169 16.9814 102.827 16.1123 102.505 15.3311C100.942 15.3701 100.01 15.3896 99.707 15.3896ZM121.709 6.05859C121.387 5.48242 120.796 4.97949 119.937 4.5498C119.077 4.12012 118.247 3.90527 117.446 3.90527C116.792 3.90527 116.26 4.08105 115.85 4.43262C115.439 4.77441 115.234 5.30664 115.234 6.0293C115.234 6.67383 115.469 7.21582 115.938 7.65527C116.406 8.09473 116.982 8.42188 117.666 8.63672C118.359 8.8418 119.116 9.10547 119.937 9.42773C120.757 9.74023 121.514 10.0771 122.207 10.4385C122.9 10.7998 123.481 11.3613 123.95 12.123C124.419 12.8848 124.653 13.8027 124.653 14.877C124.653 16.0586 124.429 17.0791 123.979 17.9385C123.53 18.7979 122.915 19.4619 122.134 19.9307C121.353 20.3994 120.518 20.7461 119.629 20.9707C118.74 21.1855 117.783 21.293 116.758 21.293C114.922 21.293 113.335 21.0342 111.997 20.5166C110.669 19.999 110.005 19.3203 110.005 18.4805C110.005 17.8555 110.176 17.3574 110.518 16.9863C110.859 16.6055 111.44 16.1953 112.261 15.7559C112.759 16.4492 113.506 17.0352 114.502 17.5137C115.508 17.9824 116.479 18.2168 117.417 18.2168C118.218 18.2168 118.867 18.0264 119.365 17.6455C119.873 17.2646 120.127 16.6738 120.127 15.873C120.127 15.1113 119.8 14.501 119.146 14.042C118.491 13.583 117.705 13.2119 116.787 12.9287C115.869 12.6455 114.951 12.3135 114.033 11.9326C113.115 11.542 112.329 10.8975 111.675 9.99902C111.021 9.09082 110.693 7.92871 110.693 6.5127C110.693 5.4873 110.913 4.59863 111.353 3.84668C111.802 3.08496 112.397 2.48926 113.14 2.05957C113.892 1.62988 114.712 1.31738 115.601 1.12207C116.489 0.916992 117.456 0.814453 118.501 0.814453C120.142 0.814453 121.553 1.05371 122.734 1.53223C123.916 2.01074 124.507 2.67969 124.507 3.53906C124.507 4.05664 124.258 4.5498 123.76 5.01855C123.271 5.47754 122.588 5.82422 121.709 6.05859ZM134.482 9.2666C135.186 8.19238 135.952 6.67871 136.782 4.72559C137.612 2.77246 138.037 1.46875 138.057 0.814453C140.938 1.10742 142.378 1.85449 142.378 3.05566C142.378 3.24121 142.31 3.49023 142.173 3.80273C142.046 4.10547 141.836 4.48633 141.543 4.94531C141.26 5.4043 140.986 5.8291 140.723 6.21973C140.469 6.61035 140.103 7.12793 139.624 7.77246C139.155 8.40723 138.799 8.88574 138.555 9.20801C138.32 9.53027 137.944 10.0332 137.427 10.7168C136.909 11.3906 136.587 11.8105 136.46 11.9766V14.9062C136.46 17.1523 136.704 19.0713 137.192 20.6631C136.45 20.9463 135.537 21.0879 134.453 21.0879C134.053 21.0879 133.721 21.0635 133.457 21.0146C133.203 20.9658 132.93 20.8682 132.637 20.7217C132.354 20.5654 132.139 20.3018 131.992 19.9307C131.855 19.5596 131.787 19.0859 131.787 18.5098C131.787 18.1289 131.797 17.416 131.816 16.3711C131.836 15.3164 131.846 14.5498 131.846 14.0713V12.1816C128.926 6.68359 126.758 3.62207 125.342 2.99707C126.357 1.62012 127.427 0.931641 128.55 0.931641C129.663 0.931641 130.581 1.56152 131.304 2.82129C131.929 3.94434 132.988 6.09277 134.482 9.2666Z" fill="#0F9656"/>
</svg>
